<mxfile host="app.diagrams.net" modified="2022-08-31T04:18:58.700Z" agent="5.0 (Macintosh; Intel Mac OS X 10_15_6) AppleWebKit/605.1.15 (KHTML, like Gecko) Version/15.6.1 Safari/605.1.15" etag="PgPtDg1YflNR1LAyFxZz" version="20.2.7" type="github">
  <diagram id="C5RBs43oDa-KdzZeNtuy" name="Page-1">
    <mxGraphModel dx="1240" dy="978" grid="1" gridSize="10" guides="1" tooltips="1" connect="1" arrows="1" fold="1" page="1" pageScale="1" pageWidth="827" pageHeight="1169" math="0" shadow="0">
      <root>
        <mxCell id="WIyWlLk6GJQsqaUBKTNV-0" />
        <mxCell id="WIyWlLk6GJQsqaUBKTNV-1" parent="WIyWlLk6GJQsqaUBKTNV-0" />
        <mxCell id="Vc4g5kRpBnblJ-6KRlZf-3" value="" style="endArrow=classic;html=1;rounded=0;labelBackgroundColor=default;fontFamily=Helvetica;fontSize=11;fontColor=default;strokeColor=default;shape=connector;exitX=0.5;exitY=1;exitDx=0;exitDy=0;" edge="1" parent="WIyWlLk6GJQsqaUBKTNV-1" source="Vc4g5kRpBnblJ-6KRlZf-5" target="Vc4g5kRpBnblJ-6KRlZf-6">
          <mxGeometry width="50" height="50" relative="1" as="geometry">
            <mxPoint x="413.998947368421" y="110" as="sourcePoint" />
            <mxPoint x="413.998947368421" y="160" as="targetPoint" />
          </mxGeometry>
        </mxCell>
        <mxCell id="Vc4g5kRpBnblJ-6KRlZf-5" value="start !" style="rounded=1;whiteSpace=wrap;html=1;fontFamily=Helvetica;fontSize=11;fontColor=default;" vertex="1" parent="WIyWlLk6GJQsqaUBKTNV-1">
          <mxGeometry x="354" y="40" width="120" height="60" as="geometry" />
        </mxCell>
        <mxCell id="Vc4g5kRpBnblJ-6KRlZf-6" value="wake up í ½í»‹" style="rounded=1;whiteSpace=wrap;html=1;fontFamily=Helvetica;fontSize=11;fontColor=default;" vertex="1" parent="WIyWlLk6GJQsqaUBKTNV-1">
          <mxGeometry x="353.998947368421" y="150" width="120" height="60" as="geometry" />
        </mxCell>
        <mxCell id="Vc4g5kRpBnblJ-6KRlZf-9" value="" style="endArrow=classic;html=1;rounded=0;labelBackgroundColor=default;fontFamily=Helvetica;fontSize=11;fontColor=default;strokeColor=default;shape=connector;exitX=0.5;exitY=1;exitDx=0;exitDy=0;" edge="1" parent="WIyWlLk6GJQsqaUBKTNV-1" source="Vc4g5kRpBnblJ-6KRlZf-6" target="Vc4g5kRpBnblJ-6KRlZf-10">
          <mxGeometry width="50" height="50" relative="1" as="geometry">
            <mxPoint x="413" y="220" as="sourcePoint" />
            <mxPoint x="413" y="260" as="targetPoint" />
          </mxGeometry>
        </mxCell>
        <mxCell id="Vc4g5kRpBnblJ-6KRlZf-10" value="take a shower + get dressed up í ¾í·¢" style="rounded=1;whiteSpace=wrap;html=1;fontFamily=Helvetica;fontSize=11;fontColor=default;" vertex="1" parent="WIyWlLk6GJQsqaUBKTNV-1">
          <mxGeometry x="353" y="260" width="120" height="60" as="geometry" />
        </mxCell>
        <mxCell id="Vc4g5kRpBnblJ-6KRlZf-11" value="" style="endArrow=classic;html=1;rounded=0;labelBackgroundColor=default;fontFamily=Helvetica;fontSize=11;fontColor=default;strokeColor=default;shape=connector;exitX=0.5;exitY=1;exitDx=0;exitDy=0;" edge="1" parent="WIyWlLk6GJQsqaUBKTNV-1" source="Vc4g5kRpBnblJ-6KRlZf-10" target="Vc4g5kRpBnblJ-6KRlZf-12">
          <mxGeometry width="50" height="50" relative="1" as="geometry">
            <mxPoint x="413" y="330" as="sourcePoint" />
            <mxPoint x="413" y="370" as="targetPoint" />
            <Array as="points">
              <mxPoint x="413" y="370" />
            </Array>
          </mxGeometry>
        </mxCell>
        <mxCell id="Vc4g5kRpBnblJ-6KRlZf-12" value="have my breakfast &lt;br&gt;í ¾íµ£í ¼í½ªí ¾íµ›" style="rounded=1;whiteSpace=wrap;html=1;fontFamily=Helvetica;fontSize=11;fontColor=default;" vertex="1" parent="WIyWlLk6GJQsqaUBKTNV-1">
          <mxGeometry x="353" y="380" width="120" height="60" as="geometry" />
        </mxCell>
        <mxCell id="Vc4g5kRpBnblJ-6KRlZf-13" value="" style="endArrow=classic;html=1;rounded=0;labelBackgroundColor=default;fontFamily=Helvetica;fontSize=11;fontColor=default;strokeColor=default;shape=connector;" edge="1" parent="WIyWlLk6GJQsqaUBKTNV-1" source="Vc4g5kRpBnblJ-6KRlZf-12" target="Vc4g5kRpBnblJ-6KRlZf-14">
          <mxGeometry width="50" height="50" relative="1" as="geometry">
            <mxPoint x="413.83" y="450" as="sourcePoint" />
            <mxPoint x="413.83" y="500" as="targetPoint" />
          </mxGeometry>
        </mxCell>
        <mxCell id="Vc4g5kRpBnblJ-6KRlZf-18" value="" style="edgeStyle=none;shape=connector;rounded=0;orthogonalLoop=1;jettySize=auto;html=1;labelBackgroundColor=default;fontFamily=Helvetica;fontSize=11;fontColor=default;endArrow=classic;strokeColor=default;" edge="1" parent="WIyWlLk6GJQsqaUBKTNV-1" source="Vc4g5kRpBnblJ-6KRlZf-14" target="Vc4g5kRpBnblJ-6KRlZf-17">
          <mxGeometry relative="1" as="geometry" />
        </mxCell>
        <mxCell id="Vc4g5kRpBnblJ-6KRlZf-14" value="leave the room í ¼í¾’" style="rounded=1;whiteSpace=wrap;html=1;fontFamily=Helvetica;fontSize=11;fontColor=default;strokeColor=default;fillColor=default;" vertex="1" parent="WIyWlLk6GJQsqaUBKTNV-1">
          <mxGeometry x="353.99999999999994" y="500" width="120" height="60" as="geometry" />
        </mxCell>
        <mxCell id="Vc4g5kRpBnblJ-6KRlZf-20" value="" style="edgeStyle=none;shape=connector;rounded=0;orthogonalLoop=1;jettySize=auto;html=1;labelBackgroundColor=default;fontFamily=Helvetica;fontSize=11;fontColor=default;endArrow=classic;strokeColor=default;" edge="1" parent="WIyWlLk6GJQsqaUBKTNV-1" source="Vc4g5kRpBnblJ-6KRlZf-17" target="Vc4g5kRpBnblJ-6KRlZf-19">
          <mxGeometry relative="1" as="geometry" />
        </mxCell>
        <mxCell id="Vc4g5kRpBnblJ-6KRlZf-17" value="walk to school í ¼í¿«" style="rounded=1;whiteSpace=wrap;html=1;fontFamily=Helvetica;fontSize=11;fontColor=default;strokeColor=default;fillColor=default;" vertex="1" parent="WIyWlLk6GJQsqaUBKTNV-1">
          <mxGeometry x="353.99999999999994" y="640" width="120" height="60" as="geometry" />
        </mxCell>
        <mxCell id="Vc4g5kRpBnblJ-6KRlZf-19" value="end." style="whiteSpace=wrap;html=1;fontSize=11;rounded=1;" vertex="1" parent="WIyWlLk6GJQsqaUBKTNV-1">
          <mxGeometry x="353.99999999999994" y="780" width="120" height="60" as="geometry" />
        </mxCell>
      </root>
    </mxGraphModel>
  </diagram>
</mxfile>
